# xmcd
#
# Track frame offsets:
#	150
#	8294
#	16842
#	27126
#	36601
#	45370
#	57927
#	68666
#
# Disc length: 1077 seconds
#
# Revision: 0
# Processed by: cddbd v1.5.2PL0 Copyright (c) Steve Scherf et al.
# Submitted via: EZCDAudioConverter 5.0.0.1
#
DISCID=53043308
DTITLE=John Trudell and Kwest - Like Broken Butterflies
DYEAR=2015
DGENRE=Spoken Word
TTITLE0=Qualities
TTITLE1=When She
TTITLE2=Blessings
TTITLE3=Ide's Of Fire And Ice
TTITLE4=How It Gets Done
TTITLE5=Like Broken Butterflies
TTITLE6=Using's Like A Habit
TTITLE7=Giving Away Laughter
EXTD=
EXTT0=
EXTT1=
EXTT2=
EXTT3=
EXTT4=
EXTT5=
EXTT6=
EXTT7=
PLAYORDER=
